<svg width="536" height="202" viewBox="0 0 536 202" fill="none" xmlns="http://www.w3.org/2000/svg">
<g clip-path="url(#clip0_3_4)">
<g filter="url(#filter0_d_3_4)">
<path d="M150.196 121.293L108.73 135.093C100.284 137.903 90.9472 133.922 87.8728 126.201L51.0784 33.7711C48.0051 26.0491 52.3591 17.5121 60.8036 14.7011L102.27 0.901147C110.715 -1.90885 120.053 2.07214 123.127 9.79315L159.922 102.223C162.995 109.945 158.641 118.483 150.196 121.293Z" fill="#F15513"/>
<path d="M93.4977 13.0461L76.063 18.8481C75.0819 19.1741 73.9981 18.7121 73.6415 17.8161C73.285 16.9191 73.7903 15.9281 74.7713 15.6021L92.2061 9.80013C93.186 9.47413 94.271 9.93614 94.6275 10.8331C94.983 11.7281 94.4777 12.7191 93.4977 13.0461Z" fill="#07293E"/>
<path d="M117.977 10.2859L55.5883 31.0467L93.3868 126.006L155.776 105.245L117.977 10.2859Z" fill="#07293E"/>
<path d="M44.6759 92.7142C40.8599 92.9492 37.5569 90.3102 37.2999 86.8202L36.1078 70.6072L8.8122 57.4822C5.42828 55.8542 4.12677 52.0262 5.90513 48.9302C7.68678 45.8332 11.8702 44.6412 15.2618 46.2722L45.9839 61.0452C48.1134 62.0692 49.5078 64.0302 49.6697 66.2252L51.1221 85.9712C51.3781 89.4602 48.4918 92.4802 44.6759 92.7142Z" fill="#F15513"/>
<path d="M128.498 176.422L44.2034 181.604C40.3874 181.839 37.0844 179.2 36.8274 175.71C36.5704 172.221 39.4567 169.201 43.2737 168.966L127.569 163.784C130.204 163.622 132.474 162.137 133.493 159.911L159.841 95.0532C161.176 91.7752 165.171 90.1011 168.746 91.3231C172.333 92.5401 174.161 96.1862 172.828 99.4652L146.377 164.563C143.212 171.485 136.402 175.936 128.498 176.422Z" fill="#F15513"/>
<path d="M154.494 149.435L56.1663 155.48C48.5333 155.949 41.9285 150.672 41.4155 143.693L37.2332 86.8251L170.114 78.6561C180.389 78.0241 187.798 87.5001 183.821 96.1851L166.342 141.69C164.315 146.114 159.728 149.113 154.494 149.435Z" fill="white"/>
<path d="M163.371 101.285L59.5929 107.665C57.6833 107.782 56.034 106.463 55.9049 104.718C55.777 102.973 57.2185 101.464 59.1281 101.346L162.906 94.9661C164.816 94.8491 166.465 96.1681 166.594 97.9131C166.722 99.6581 165.281 101.168 163.371 101.285Z" fill="#F15513"/>
<path d="M150.711 117.931L60.7533 123.461C58.8437 123.578 57.1944 122.259 57.0653 120.514C56.9374 118.769 58.3778 117.26 60.2885 117.142L150.246 111.612C152.155 111.495 153.805 112.814 153.934 114.559C154.062 116.304 152.621 117.814 150.711 117.931Z" fill="#F15513"/>
<path d="M137.687 134.6L61.9148 139.258C60.0052 139.375 58.3559 138.056 58.2269 136.311C58.0989 134.566 59.5404 133.057 61.45 132.939L137.222 128.281C139.131 128.164 140.781 129.483 140.91 131.228C141.038 132.973 139.596 134.482 137.687 134.6Z" fill="#F15513"/>
<path d="M67.3997 188.112C67.9127 195.091 62.1412 201.13 54.5072 201.599C46.8742 202.068 40.2693 196.791 39.7564 189.811C39.2434 182.832 45.0149 176.793 52.6479 176.324C60.2819 175.855 66.8868 181.132 67.3997 188.112Z" fill="white"/>
<path d="M60.4886 188.537C60.7457 192.027 57.8594 195.046 54.0423 195.281C50.2253 195.516 46.9234 192.877 46.6664 189.387C46.4094 185.898 49.2957 182.878 53.1127 182.643C56.9297 182.408 60.2327 185.047 60.4886 188.537Z" fill="white"/>
<path d="M142.112 183.519C142.625 190.498 136.853 196.537 129.219 197.006C121.586 197.475 114.981 192.198 114.468 185.219C113.955 178.24 119.727 172.201 127.36 171.732C134.994 171.262 141.598 176.539 142.112 183.519Z" fill="white"/>
<path d="M135.201 183.944C135.458 187.434 132.571 190.453 128.754 190.687C124.937 190.922 121.635 188.283 121.38 184.793C121.123 181.304 124.009 178.284 127.826 178.049C131.642 177.815 134.944 180.454 135.201 183.944Z" fill="white"/>
<path d="M15.837 107.248C16.0941 110.738 13.2078 113.757 9.39076 113.991C5.57373 114.226 2.27184 111.587 2.01592 108.097C1.7589 104.608 4.64518 101.588 8.46221 101.353C12.2781 101.119 15.58 103.758 15.837 107.248Z" fill="white"/>
<path d="M188.007 41.8211C188.264 45.3111 185.378 48.3301 181.561 48.5641C177.744 48.7991 174.442 46.1601 174.186 42.6701C173.929 39.1811 176.815 36.1611 180.632 35.9261C184.449 35.6921 187.751 38.3311 188.007 41.8211Z" fill="white"/>
<path d="M42.8658 18.5271C43.1228 22.0171 40.2365 25.0361 36.4195 25.2701C32.6024 25.5051 29.3006 22.8661 29.0446 19.3761C28.7876 15.8871 31.6739 12.8671 35.4909 12.6321C39.3069 12.3991 42.6088 15.0381 42.8658 18.5271Z" fill="white"/>
</g>
<g filter="url(#filter1_b_3_4)">
<path d="M216.026 88.6152L224.463 115.138H224.787L233.242 88.6152H241.424L229.389 123.524H219.878L207.827 88.6152H216.026ZM254.468 124.036C251.774 124.036 249.456 123.49 247.513 122.399C245.581 121.297 244.093 119.74 243.047 117.729C242.002 115.706 241.479 113.314 241.479 110.553C241.479 107.86 242.002 105.496 243.047 103.462C244.093 101.428 245.564 99.8425 247.462 98.7061C249.371 97.5698 251.61 97.0016 254.178 97.0016C255.905 97.0016 257.513 97.28 259.002 97.8368C260.502 98.3823 261.809 99.2061 262.922 100.308C264.047 101.411 264.922 102.797 265.547 104.468C266.172 106.127 266.485 108.07 266.485 110.297V112.291H244.377V107.791H259.649C259.649 106.746 259.422 105.82 258.968 105.013C258.513 104.206 257.882 103.575 257.076 103.121C256.28 102.655 255.354 102.422 254.297 102.422C253.195 102.422 252.218 102.678 251.365 103.189C250.524 103.689 249.865 104.365 249.388 105.218C248.911 106.058 248.666 106.996 248.655 108.03V112.308C248.655 113.604 248.894 114.723 249.371 115.666C249.86 116.61 250.547 117.337 251.434 117.848C252.32 118.36 253.371 118.615 254.587 118.615C255.394 118.615 256.132 118.502 256.803 118.274C257.473 118.047 258.047 117.706 258.524 117.252C259.002 116.797 259.365 116.24 259.615 115.581L266.331 116.024C265.99 117.638 265.291 119.047 264.235 120.252C263.189 121.445 261.837 122.377 260.178 123.047C258.53 123.706 256.627 124.036 254.468 124.036ZM278.485 108.388V123.524H271.223V97.3425H278.144V101.962H278.451C279.03 100.439 280.002 99.2345 281.365 98.3482C282.729 97.4505 284.382 97.0016 286.326 97.0016C288.144 97.0016 289.729 97.3993 291.081 98.1948C292.434 98.9902 293.485 100.127 294.235 101.604C294.985 103.07 295.36 104.82 295.36 106.854V123.524H288.098V108.149C288.11 106.547 287.701 105.297 286.871 104.399C286.041 103.49 284.899 103.036 283.445 103.036C282.468 103.036 281.604 103.246 280.854 103.666C280.115 104.087 279.536 104.7 279.115 105.507C278.706 106.303 278.496 107.263 278.485 108.388ZM310.73 123.95C308.742 123.95 306.941 123.439 305.327 122.416C303.725 121.382 302.452 119.865 301.509 117.865C300.577 115.854 300.111 113.388 300.111 110.468C300.111 107.468 300.594 104.973 301.56 102.985C302.526 100.985 303.81 99.4902 305.412 98.5016C307.026 97.5016 308.793 97.0016 310.713 97.0016C312.179 97.0016 313.401 97.2516 314.378 97.7516C315.367 98.2402 316.162 98.8539 316.764 99.5925C317.378 100.32 317.844 101.036 318.162 101.74H318.384V88.6152H325.628V123.524H318.469V119.331H318.162C317.821 120.058 317.338 120.78 316.713 121.496C316.1 122.2 315.299 122.786 314.31 123.252C313.333 123.718 312.139 123.95 310.73 123.95ZM313.032 118.172C314.202 118.172 315.191 117.854 315.997 117.218C316.816 116.57 317.441 115.666 317.872 114.507C318.316 113.348 318.537 111.99 318.537 110.433C318.537 108.877 318.321 107.524 317.889 106.377C317.458 105.229 316.833 104.343 316.014 103.718C315.196 103.093 314.202 102.78 313.032 102.78C311.838 102.78 310.833 103.104 310.014 103.752C309.196 104.399 308.577 105.297 308.157 106.445C307.736 107.593 307.526 108.922 307.526 110.433C307.526 111.956 307.736 113.303 308.157 114.473C308.588 115.632 309.208 116.541 310.014 117.2C310.833 117.848 311.838 118.172 313.032 118.172ZM343.428 124.036C340.78 124.036 338.49 123.473 336.559 122.348C334.638 121.212 333.155 119.632 332.11 117.61C331.064 115.575 330.541 113.218 330.541 110.536C330.541 107.831 331.064 105.468 332.11 103.445C333.155 101.411 334.638 99.8311 336.559 98.7061C338.49 97.5698 340.78 97.0016 343.428 97.0016C346.076 97.0016 348.36 97.5698 350.28 98.7061C352.212 99.8311 353.701 101.411 354.746 103.445C355.791 105.468 356.314 107.831 356.314 110.536C356.314 113.218 355.791 115.575 354.746 117.61C353.701 119.632 352.212 121.212 350.28 122.348C348.36 123.473 346.076 124.036 343.428 124.036ZM343.462 118.411C344.666 118.411 345.672 118.07 346.479 117.388C347.286 116.695 347.894 115.752 348.303 114.558C348.723 113.365 348.934 112.007 348.934 110.485C348.934 108.962 348.723 107.604 348.303 106.411C347.894 105.218 347.286 104.274 346.479 103.581C345.672 102.888 344.666 102.541 343.462 102.541C342.246 102.541 341.223 102.888 340.394 103.581C339.576 104.274 338.956 105.218 338.536 106.411C338.127 107.604 337.922 108.962 337.922 110.485C337.922 112.007 338.127 113.365 338.536 114.558C338.956 115.752 339.576 116.695 340.394 117.388C341.223 118.07 342.246 118.411 343.462 118.411ZM361.036 123.524V97.3425H368.076V101.911H368.348C368.826 100.286 369.627 99.0584 370.752 98.2289C371.877 97.388 373.172 96.9675 374.638 96.9675C375.002 96.9675 375.394 96.9902 375.814 97.0357C376.235 97.0811 376.604 97.1436 376.922 97.2232V103.666C376.581 103.564 376.11 103.473 375.507 103.394C374.905 103.314 374.354 103.274 373.854 103.274C372.786 103.274 371.831 103.507 370.99 103.973C370.161 104.428 369.502 105.064 369.013 105.882C368.536 106.7 368.297 107.644 368.297 108.712V123.524H361.036ZM398.229 88.6152L406.666 115.138H406.99L415.445 88.6152H423.627L411.593 123.524H402.081L390.03 88.6152H398.229ZM436.671 124.036C433.978 124.036 431.659 123.49 429.716 122.399C427.784 121.297 426.296 119.74 425.25 117.729C424.205 115.706 423.682 113.314 423.682 110.553C423.682 107.86 424.205 105.496 425.25 103.462C426.296 101.428 427.767 99.8425 429.665 98.7061C431.574 97.5698 433.813 97.0016 436.381 97.0016C438.108 97.0016 439.716 97.28 441.205 97.8368C442.705 98.3823 444.012 99.2061 445.125 100.308C446.25 101.411 447.125 102.797 447.75 104.468C448.375 106.127 448.688 108.07 448.688 110.297V112.291H426.58V107.791H441.853C441.853 106.746 441.625 105.82 441.171 105.013C440.716 104.206 440.086 103.575 439.279 103.121C438.483 102.655 437.557 102.422 436.5 102.422C435.398 102.422 434.421 102.678 433.568 103.189C432.728 103.689 432.068 104.365 431.591 105.218C431.114 106.058 430.87 106.996 430.858 108.03V112.308C430.858 113.604 431.097 114.723 431.574 115.666C432.063 116.61 432.75 117.337 433.637 117.848C434.523 118.36 435.574 118.615 436.79 118.615C437.597 118.615 438.336 118.502 439.006 118.274C439.676 118.047 440.25 117.706 440.728 117.252C441.205 116.797 441.568 116.24 441.818 115.581L448.534 116.024C448.193 117.638 447.495 119.047 446.438 120.252C445.392 121.445 444.04 122.377 442.381 123.047C440.733 123.706 438.83 124.036 436.671 124.036ZM453.426 123.524V97.3425H460.466V101.911H460.739C461.216 100.286 462.017 99.0584 463.142 98.2289C464.267 97.388 465.563 96.9675 467.029 96.9675C467.392 96.9675 467.784 96.9902 468.205 97.0357C468.625 97.0811 468.995 97.1436 469.313 97.2232V103.666C468.972 103.564 468.5 103.473 467.898 103.394C467.296 103.314 466.745 103.274 466.245 103.274C465.176 103.274 464.222 103.507 463.381 103.973C462.551 104.428 461.892 105.064 461.404 105.882C460.926 106.7 460.688 107.644 460.688 108.712V123.524H453.426ZM494.851 104.808L488.203 105.218C488.09 104.649 487.845 104.138 487.47 103.683C487.095 103.218 486.601 102.848 485.987 102.575C485.385 102.291 484.664 102.149 483.823 102.149C482.698 102.149 481.749 102.388 480.976 102.865C480.203 103.331 479.817 103.956 479.817 104.74C479.817 105.365 480.067 105.894 480.567 106.325C481.067 106.757 481.925 107.104 483.141 107.365L487.88 108.32C490.425 108.843 492.323 109.683 493.573 110.843C494.823 112.002 495.448 113.524 495.448 115.411C495.448 117.127 494.942 118.632 493.931 119.928C492.931 121.223 491.556 122.235 489.806 122.962C488.067 123.678 486.061 124.036 483.789 124.036C480.323 124.036 477.561 123.314 475.505 121.871C473.459 120.416 472.26 118.439 471.908 115.939L479.05 115.564C479.266 116.621 479.789 117.428 480.618 117.985C481.448 118.53 482.51 118.803 483.806 118.803C485.078 118.803 486.101 118.558 486.874 118.07C487.658 117.57 488.056 116.928 488.067 116.144C488.056 115.485 487.777 114.945 487.232 114.524C486.686 114.093 485.845 113.763 484.709 113.536L480.175 112.632C477.618 112.121 475.715 111.235 474.465 109.973C473.226 108.712 472.607 107.104 472.607 105.149C472.607 103.468 473.061 102.019 473.97 100.803C474.891 99.5868 476.181 98.6493 477.84 97.9902C479.51 97.3311 481.465 97.0016 483.703 97.0016C487.01 97.0016 489.612 97.7005 491.51 99.0982C493.419 100.496 494.533 102.399 494.851 104.808ZM511.952 124.036C509.259 124.036 506.941 123.49 504.997 122.399C503.066 121.297 501.577 119.74 500.532 117.729C499.486 115.706 498.963 113.314 498.963 110.553C498.963 107.86 499.486 105.496 500.532 103.462C501.577 101.428 503.049 99.8425 504.946 98.7061C506.855 97.5698 509.094 97.0016 511.662 97.0016C513.389 97.0016 514.997 97.28 516.486 97.8368C517.986 98.3823 519.293 99.2061 520.407 100.308C521.532 101.411 522.407 102.797 523.032 104.468C523.657 106.127 523.969 108.07 523.969 110.297V112.291H501.861V107.791H517.134C517.134 106.746 516.907 105.82 516.452 105.013C515.997 104.206 515.367 103.575 514.56 103.121C513.764 102.655 512.838 102.422 511.782 102.422C510.679 102.422 509.702 102.678 508.85 103.189C508.009 103.689 507.35 104.365 506.872 105.218C506.395 106.058 506.151 106.996 506.139 108.03V112.308C506.139 113.604 506.378 114.723 506.855 115.666C507.344 116.61 508.032 117.337 508.918 117.848C509.804 118.36 510.855 118.615 512.071 118.615C512.878 118.615 513.617 118.502 514.287 118.274C514.958 118.047 515.532 117.706 516.009 117.252C516.486 116.797 516.85 116.24 517.1 115.581L523.816 116.024C523.475 117.638 522.776 119.047 521.719 120.252C520.674 121.445 519.321 122.377 517.662 123.047C516.014 123.706 514.111 124.036 511.952 124.036Z" fill="white"/>
</g>
</g>
<defs>
<filter id="filter0_d_3_4" x="-2" y="0" width="194.023" height="209.628" filterUnits="userSpaceOnUse" color-interpolation-filters="sRGB">
<feFlood flood-opacity="0" result="BackgroundImageFix"/>
<feColorMatrix in="SourceAlpha" type="matrix" values="0 0 0 0 0 0 0 0 0 0 0 0 0 0 0 0 0 0 127 0" result="hardAlpha"/>
<feOffset dy="4"/>
<feGaussianBlur stdDeviation="2"/>
<feComposite in2="hardAlpha" operator="out"/>
<feColorMatrix type="matrix" values="0 0 0 0 0 0 0 0 0 0 0 0 0 0 0 0 0 0 0.25 0"/>
<feBlend mode="normal" in2="BackgroundImageFix" result="effect1_dropShadow_3_4"/>
<feBlend mode="normal" in="SourceGraphic" in2="effect1_dropShadow_3_4" result="shape"/>
</filter>
<filter id="filter1_b_3_4" x="203.827" y="84.6152" width="324.142" height="43.4204" filterUnits="userSpaceOnUse" color-interpolation-filters="sRGB">
<feFlood flood-opacity="0" result="BackgroundImageFix"/>
<feGaussianBlur in="BackgroundImageFix" stdDeviation="2"/>
<feComposite in2="SourceAlpha" operator="in" result="effect1_backgroundBlur_3_4"/>
<feBlend mode="normal" in="SourceGraphic" in2="effect1_backgroundBlur_3_4" result="shape"/>
</filter>
<clipPath id="clip0_3_4">
<rect width="536" height="202" fill="white"/>
</clipPath>
</defs>
</svg>
